# xmcd
#
# Track frame offsets: 
#        150
#        11696
#        23151
#        35101
#        47094
#        61401
#        74105
#        86823
#        98169
#        113374
#
# Disc length: 1637 seconds
#
# Revision: 0
# Processed by: cddbd v1.5.2PL0 Copyright (c) Steve Scherf et al.
# Submitted via: ExactAudioCopy v0.99pb4
#
DISCID=8506630a
DTITLE=Charley Pride - She's Just an Old Love Turned Memory
DYEAR=1977
DGENRE=Country
TTITLE0=She's Just an Old Love Turned Memory
TTITLE1=We Need Lovin'
TTITLE2=The Hunger
TTITLE3=A Whole Lotta Things to Sing About
TTITLE4=I Feel the Country Callin' Me
TTITLE5=I'll Be Leaving Alone
TTITLE6=Rhinestone Cowboy
TTITLE7=Country Music
TTITLE8=The Rose is for Today
TTITLE9=Get Up Off Your Good Intentions
EXTD=
EXTT0=
EXTT1=
EXTT2=
EXTT3=
EXTT4=
EXTT5=
EXTT6=
EXTT7=
EXTT8=
EXTT9=
PLAYORDER=
